<?xml version="1.0" standalone="no"?>
<!DOCTYPE svg PUBLIC "-//W3C//DTD SVG 20010904//EN"
 "http://www.w3.org/TR/2001/REC-SVG-20010904/DTD/svg10.dtd">
<svg version="1.0" xmlns="http://www.w3.org/2000/svg"
 width="582.000000pt" height="580.000000pt" viewBox="0 0 582.000000 580.000000"
 preserveAspectRatio="xMidYMid meet">

<g transform="translate(0.000000,580.000000) scale(0.100000,-0.100000)"
fill="#000000" stroke="none">
<path d="M1160 4693 c0 -5 4 -13 8 -18 5 -6 17 -32 27 -60 9 -27 30 -77 45
-110 16 -33 45 -96 65 -140 49 -108 129 -269 135 -275 3 -3 17 -29 30 -57 14
-29 28 -53 32 -53 5 0 8 -6 8 -13 0 -8 12 -32 28 -54 37 -54 51 -75 59 -93 3
-8 26 -41 50 -72 24 -31 43 -60 43 -63 0 -8 30 -45 113 -139 65 -74 64 -73
122 -121 26 -22 53 -45 59 -51 7 -6 22 -15 34 -18 12 -4 22 -11 22 -16 0 -5
14 -11 30 -15 17 -4 30 -12 30 -19 0 -10 -30 -15 -107 -20 -60 -4 -117 -8
-128 -10 -11 -2 -57 -4 -102 -5 -95 -1 -100 -12 -28 -51 25 -14 45 -28 45 -31
0 -4 8 -9 18 -13 9 -3 31 -15 47 -26 17 -11 41 -25 55 -32 14 -7 27 -15 30
-18 18 -20 211 -100 240 -100 33 0 23 -27 -12 -33 -18 -3 -83 -14 -144 -26
-61 -11 -138 -22 -172 -23 -61 -3 -84 -20 -44 -32 9 -3 28 -16 42 -29 14 -12
43 -34 65 -47 22 -13 42 -26 45 -29 14 -16 158 -90 240 -124 19 -8 63 -20 98
-28 34 -7 62 -16 62 -19 0 -3 -46 -35 -102 -69 -57 -35 -115 -72 -130 -82 -15
-10 -32 -19 -38 -19 -5 0 -10 -4 -10 -10 0 -5 -6 -10 -13 -10 -7 0 -36 -16
-64 -35 -29 -19 -57 -35 -63 -35 -5 0 -10 -4 -10 -9 0 -5 -8 -12 -18 -15 -9
-3 -49 -26 -87 -51 -39 -25 -76 -45 -82 -45 -7 0 -13 -4 -13 -10 0 -5 -5 -10
-10 -10 -6 0 -67 -34 -135 -75 -68 -41 -126 -75 -130 -75 -3 0 -26 -13 -50
-30 -24 -16 -48 -30 -53 -30 -6 0 -12 -3 -14 -7 -1 -5 -25 -19 -52 -33 -27
-14 -101 -54 -165 -90 -64 -36 -152 -83 -196 -105 -44 -22 -82 -42 -85 -45 -5
-5 -69 -35 -225 -106 l-60 -27 105 -13 c360 -42 1330 -43 1596 0 16 2 58 7 94
11 228 23 709 125 782 165 10 6 26 10 35 10 10 1 36 9 58 20 22 11 45 19 51
20 6 0 24 6 40 14 16 7 45 20 64 27 19 8 80 37 135 65 313 159 539 374 656
624 17 36 34 72 38 80 5 9 12 31 16 50 4 19 11 40 15 45 4 6 11 35 15 65 7 48
13 60 64 110 72 73 373 273 441 295 11 4 20 10 20 14 0 7 36 25 105 52 60 23
243 62 393 84 57 8 108 17 113 21 19 11 -60 57 -196 114 -27 11 -98 35 -165
55 -76 22 -100 35 -100 56 0 43 -72 158 -127 202 -13 10 -30 25 -37 33 -8 8
-18 14 -22 14 -4 0 -15 7 -24 15 -29 26 -153 67 -265 86 -104 19 -116 19 -220
4 -60 -9 -137 -25 -170 -36 -75 -25 -263 -117 -285 -139 -3 -3 -23 -18 -46
-33 -22 -15 -49 -35 -60 -45 -10 -9 -49 -43 -86 -76 l-68 -58 -37 15 c-35 14
-116 49 -188 82 -16 7 -52 23 -80 36 -46 20 -112 49 -190 84 -16 7 -74 34
-128 59 -55 25 -100 46 -102 46 -2 0 -52 23 -112 51 -59 28 -137 65 -173 81
-65 31 -258 123 -425 204 -50 24 -96 44 -103 44 -7 0 -12 4 -12 9 0 5 -12 12
-27 16 -15 3 -30 10 -33 13 -3 4 -61 36 -130 71 -132 67 -228 119 -245 131 -5
4 -41 24 -80 45 -38 21 -115 68 -170 104 -114 75 -115 76 -115 64z"/>
</g>
</svg>
